<?xml version="1.0" encoding="utf-8"?>
<!-- Generator: Adobe Illustrator 16.0.0, SVG Export Plug-In . SVG Version: 6.00 Build 0)  -->
<!DOCTYPE svg PUBLIC "-//W3C//DTD SVG 1.1//EN" "http://www.w3.org/Graphics/SVG/1.1/DTD/svg11.dtd">
<svg version="1.1" id="Layer_1" xmlns="http://www.w3.org/2000/svg" xmlns:xlink="http://www.w3.org/1999/xlink" x="0px" y="0px"
	 width="2272px" height="1424px" viewBox="0 0 2272 1424" enable-background="new 0 0 2272 1424" xml:space="preserve">
<g>
	<g>
		<g>
			<rect x="276.251" y="312.91" fill="#42210B" stroke="#000000" stroke-miterlimit="10" width="532.48" height="532.482"/>
			<path fill="#F2F2F2" stroke="#000000" stroke-miterlimit="10" d="M760.853,779.667c0,9.854-7.99,17.845-17.845,17.845H341.975
				c-9.856,0-17.845-7.99-17.845-17.845V378.635c0-9.854,7.989-17.845,17.845-17.845h401.033c9.854,0,17.845,7.99,17.845,17.845
				V779.667z"/>
			<g>
				<g>
					<path stroke="#000000" stroke-width="7" stroke-miterlimit="10" d="M576.165,389.399l-6.323-1.693l-6.505,24.276
						c2.119,0.517,4.225,1.086,6.322,1.696L576.165,389.399z"/>
					<path stroke="#000000" stroke-width="7" stroke-miterlimit="10" d="M484.108,387.706l-6.322,1.693l6.504,24.277
						c2.099-0.608,4.205-1.178,6.322-1.696L484.108,387.706z"/>
					<path stroke="#000000" stroke-width="7" stroke-miterlimit="10" d="M421.33,450.058l-17.792-17.791l-4.627,4.628l17.791,17.792
						c0.752-0.787,1.512-1.571,2.284-2.345C419.76,451.568,420.544,450.811,421.33,450.058z"/>
					<path stroke="#000000" stroke-width="7" stroke-miterlimit="10" d="M356.043,511.143l-1.694,6.323l24.276,6.504
						c0.516-2.117,1.085-4.224,1.695-6.322L356.043,511.143z"/>
					<path stroke="#000000" stroke-width="7" stroke-miterlimit="10" d="M354.349,603.2l1.693,6.322l24.277-6.507
						c-0.61-2.096-1.179-4.202-1.696-6.319L354.349,603.2z"/>
				</g>
				<path d="M722.248,681.722c-19.225-19.225-49.098-21.281-70.618-6.202L537.163,561.054c-3.758-3.76-9.852-3.76-13.61,0
					c-3.758,3.757-3.758,9.85,0,13.608L638.02,689.129c-15.079,21.522-13.022,51.396,6.203,70.619
					c21.545,21.545,56.478,21.545,78.025,0C743.794,738.2,743.794,703.267,722.248,681.722z M711.361,748.861
					c-15.533,15.533-40.718,15.533-56.251,0c-15.533-15.536-15.533-40.72,0-56.253c15.534-15.534,40.717-15.533,56.251,0
					C726.893,708.142,726.895,733.325,711.361,748.861z"/>
			</g>
		</g>
		<g>
			<path fill="#42210B" stroke="#000000" stroke-miterlimit="10" d="M340.125,1111.09h-42.916V872.959h42.916V1111.09z"/>
			<path fill="#42210B" stroke="#000000" stroke-miterlimit="10" d="M572.323,1111.09h-41.695l-90.367-152.124
				c-1.395-2.325-3.663-6.106-6.804-11.34c-1.396-2.324-3.549-5.988-6.455-10.99v174.454h-34.542V872.959h47.452l83.389,140.262
				c0.698,1.164,5.757,9.712,15.177,25.645V872.959h33.845V1111.09z"/>
			<path fill="#42210B" stroke="#000000" stroke-miterlimit="10" d="M811.5,1111.09h-45.883l-19.015-56.697h-91.589l-18.666,56.697
				h-36.636l79.028-238.131H731.6L811.5,1111.09z M735.088,1020.025l-34.716-106.243l-34.717,106.243H735.088z"/>
		</g>
	</g>
	<g>
		<g>
			<rect x="971.331" y="312.91" fill="#42210B" stroke="#000000" stroke-miterlimit="10" width="321.421" height="321.423"/>
			<path fill="#F2F2F2" stroke="#000000" stroke-miterlimit="10" d="M1263.851,594.659c0,5.948-4.823,10.771-10.771,10.771h-242.077
				c-5.948,0-10.771-4.823-10.771-10.771V352.583c0-5.948,4.823-10.771,10.771-10.771h242.077c5.947,0,10.771,4.823,10.771,10.771
				V594.659z"/>
			<g>
				<g>
					<path stroke="#000000" stroke-width="7" stroke-miterlimit="10" d="M1152.368,359.083l-3.816-1.023l-3.928,14.654
						c1.279,0.311,2.551,0.656,3.816,1.023L1152.368,359.083z"/>
					<path stroke="#000000" stroke-width="7" stroke-miterlimit="10" d="M1096.801,358.06l-3.818,1.023l3.927,14.654
						c1.267-0.367,2.539-0.712,3.816-1.024L1096.801,358.06z"/>
					<path stroke="#000000" stroke-width="7" stroke-miterlimit="10" d="M1058.905,395.698l-10.74-10.74l-2.793,2.794l10.738,10.739
						c0.454-0.475,0.913-0.948,1.379-1.415C1057.957,396.609,1058.43,396.151,1058.905,395.698z"/>
					<path stroke="#000000" stroke-width="7" stroke-miterlimit="10" d="M1019.496,432.57l-1.022,3.816l14.653,3.926
						c0.311-1.279,0.655-2.549,1.022-3.816L1019.496,432.57z"/>
					<path stroke="#000000" stroke-width="7" stroke-miterlimit="10" d="M1018.474,488.138l1.021,3.816l14.654-3.928
						c-0.367-1.264-0.712-2.536-1.022-3.815L1018.474,488.138z"/>
				</g>
				<path d="M1240.548,535.537c-11.604-11.604-29.636-12.847-42.627-3.744l-69.096-69.096c-2.27-2.269-5.946-2.269-8.216,0
					c-2.269,2.269-2.269,5.946,0,8.215l69.096,69.095c-9.101,12.991-7.86,31.022,3.744,42.627c13.006,13.005,34.092,13.005,47.099,0
					C1253.554,569.629,1253.554,548.542,1240.548,535.537z M1233.977,576.063c-9.377,9.376-24.579,9.376-33.956,0
					c-9.376-9.378-9.376-24.579,0-33.956c9.377-9.376,24.578-9.376,33.956,0C1243.352,551.484,1243.354,566.686,1233.977,576.063z"
					/>
			</g>
		</g>
		<g>
			<path fill="#42210B" stroke="#000000" stroke-miterlimit="10" d="M1376.68,629.991h-56.36v-312.74h56.36V629.991z"/>
			<path fill="#42210B" stroke="#000000" stroke-miterlimit="10" d="M1681.633,629.991h-54.76l-118.682-199.786
				c-1.833-3.053-4.81-8.019-8.936-14.891c-1.831-3.054-4.659-7.865-8.477-14.435v229.112h-45.363v-312.74h62.317l109.515,184.209
				c0.919,1.529,7.564,12.755,19.936,33.679V317.251h44.449V629.991z"/>
			<path fill="#42210B" stroke="#000000" stroke-miterlimit="10" d="M1995.749,629.991h-60.26l-24.973-74.459h-120.284
				l-24.517,74.459h-48.113l103.788-312.74h69.422L1995.749,629.991z M1895.395,510.396l-45.593-139.53l-45.593,139.53H1895.395z"/>
		</g>
	</g>
</g>
</svg>
